<svg xmlns="http://www.w3.org/2000/svg" viewBox="0 -932 4434 1121" width="4434" height="1121" preserveAspectRatio="xMidYMid meet">
  <g transform="scale(1,-1)" fill="#efebce">
    <path transform="translate(0,0)" d="M594 693V560H385V0H229V560H20V693Z"/>
    <path transform="translate(614,0)" d="M562 264Q562 202 544.0 150.5Q526 99 492.0 62.5Q458 26 410.5 6.0Q363 -14 304 -14Q246 -14 198.5 6.0Q151 26 117.0 62.5Q83 99 64.0 150.5Q45 202 45 264Q45 326 64.5 377.0Q84 428 118.5 464.0Q153 500 200.5 520.0Q248 540 304 540Q361 540 408.5 520.0Q456 500 490.0 464.0Q524 428 543.0 377.0Q562 326 562 264ZM410 264Q410 333 382.5 372.5Q355 412 304 412Q253 412 225.0 372.5Q197 333 197 264Q197 195 225.0 154.5Q253 114 304 114Q355 114 382.5 154.5Q410 195 410 264Z"/>
    <path transform="translate(1221,0)" d="M519 18Q481 7 421.0 -2.5Q361 -12 295 -12Q228 -12 183.5 6.0Q139 24 113.0 56.5Q87 89 76.0 134.0Q65 179 65 233V526H214V251Q214 179 233.0 147.0Q252 115 304 115Q320 115 338.0 116.5Q356 118 370 120V526H519Z"/>
    <path transform="translate(1810,0)" d="M387 394Q367 399 340.0 404.5Q313 410 282 410Q268 410 248.5 407.5Q229 405 219 402V0H70V498Q110 512 164.5 524.5Q219 537 286 537Q298 537 315.0 535.5Q332 534 349.0 531.5Q366 529 383.0 525.5Q400 522 412 517Z"/>
    <path transform="translate(2232,0)" d="M396 -14Q227 -14 138.5 80.0Q50 174 50 347Q50 433 77.0 500.5Q104 568 151.0 614.5Q198 661 263.0 685.0Q328 709 404 709Q448 709 484.0 702.5Q520 696 547.0 687.5Q574 679 592.0 670.0Q610 661 618 656L573 530Q541 547 498.5 559.0Q456 571 402 571Q366 571 331.5 559.0Q297 547 270.5 520.5Q244 494 228.0 452.0Q212 410 212 350Q212 302 222.5 260.5Q233 219 256.5 189.0Q280 159 318.0 141.5Q356 124 410 124Q444 124 471.0 128.0Q498 132 519.0 137.5Q540 143 556.0 150.0Q572 157 585 163L628 38Q595 18 535.0 2.0Q475 -14 396 -14Z" fill="#628395"/>
    <path transform="translate(2880,0)" d="M545 619Q557 578 571.5 526.5Q586 475 602.5 420.0Q619 365 636.0 310.0Q653 255 669 208Q682 259 695.5 319.0Q709 379 721.0 443.0Q733 507 744.5 570.5Q756 634 766 693H928Q893 519 847.5 340.0Q802 161 749 0H606Q571 96 538.0 201.5Q505 307 473 413Q441 307 409.0 201.5Q377 96 342 0H199Q146 161 100.5 340.0Q55 519 20 693H189Q199 634 211.0 570.5Q223 507 236.0 443.0Q249 379 262.5 319.0Q276 259 290 208Q308 257 325.0 312.0Q342 367 358.0 422.0Q374 477 387.5 528.0Q401 579 412 619Z" fill="#628395"/>
    <path transform="translate(3828,0)" d="M80 0V693H548V562H236V426H513V298H236V131H571V0Z" fill="#628395"/>
  </g>
</svg>
